<?xml version="1.0" encoding="UTF-8" standalone="no"?>
<svg width="1024px" height="1024px" viewBox="0 0 1024 1024" version="1.1" xmlns="http://www.w3.org/2000/svg" xmlns:xlink="http://www.w3.org/1999/xlink" xmlns:sketch="http://www.bohemiancoding.com/sketch/ns">
    <!-- Generator: Sketch 3.1.1 (8761) - http://www.bohemiancoding.com/sketch -->
    <title>AppIcon 3</title>
    <desc>Created with Sketch.</desc>
    <defs>
        <filter x="-50%" y="-50%" width="200%" height="200%" filterUnits="objectBoundingBox" id="filter-1">
            <feOffset dx="-2" dy="4" in="SourceAlpha" result="shadowOffsetOuter1"></feOffset>
            <feGaussianBlur stdDeviation="2" in="shadowOffsetOuter1" result="shadowBlurOuter1"></feGaussianBlur>
            <feColorMatrix values="0 0 0 0 0   0 0 0 0 0   0 0 0 0 0  0 0 0 0.07 0" in="shadowBlurOuter1" type="matrix" result="shadowMatrixOuter1"></feColorMatrix>
            <feOffset dx="0" dy="4" in="SourceAlpha" result="shadowOffsetOuter2"></feOffset>
            <feGaussianBlur stdDeviation="11.5" in="shadowOffsetOuter2" result="shadowBlurOuter2"></feGaussianBlur>
            <feColorMatrix values="0 0 0 0 0   0 0 0 0 0   0 0 0 0 0  0 0 0 0.056 0" in="shadowBlurOuter2" type="matrix" result="shadowMatrixOuter2"></feColorMatrix>
            <feOffset dx="0" dy="0" in="SourceAlpha" result="shadowOffsetOuter3"></feOffset>
            <feGaussianBlur stdDeviation="2" in="shadowOffsetOuter3" result="shadowBlurOuter3"></feGaussianBlur>
            <feColorMatrix values="0 0 0 0 0   0 0 0 0 0   0 0 0 0 0  0 0 0 0.14 0" in="shadowBlurOuter3" type="matrix" result="shadowMatrixOuter3"></feColorMatrix>
            <feMerge>
                <feMergeNode in="shadowMatrixOuter1"></feMergeNode>
                <feMergeNode in="shadowMatrixOuter2"></feMergeNode>
                <feMergeNode in="shadowMatrixOuter3"></feMergeNode>
                <feMergeNode in="SourceGraphic"></feMergeNode>
            </feMerge>
        </filter>
    </defs>
    <g id="Page-1" stroke="none" stroke-width="1" fill="none" fill-rule="evenodd" sketch:type="MSPage">
        <g id="AppIcon-3" sketch:type="MSArtboardGroup">
            <g id="AppIconTemplate" sketch:type="MSLayerGroup" transform="translate(-11.000000, -10.000000)" fill="#202020">
                <g id="layer5" sketch:type="MSShapeGroup">
                    <rect id="rect4108" x="0" y="0" width="1048" height="1048"></rect>
                </g>
            </g>
            <g id="Controls-/-Switch-Off-2" sketch:type="MSLayerGroup" transform="translate(392.000000, 323.000000)" fill="#FFFFFF">
                <g transform="translate(120.284314, 189.645161) rotate(-270.000000) translate(-120.284314, -189.645161) translate(-69.715686, 69.145161)" sketch:type="MSShapeGroup">
                    <g id="handle" transform="translate(23.403226, 23.382353)" filter="url(#filter-1)">
                        <ellipse cx="97.0967742" cy="96.9019608" rx="97.0967742" ry="96.9019608"></ellipse>
                    </g>
                    <path d="M2.84217094e-14,120.284314 C2.84217094e-14,186.717293 53.8469844,240.568627 120.279691,240.568627 L259.429986,240.568627 C325.857554,240.568627 379.709677,186.712913 379.709677,120.284314 C379.709677,53.8513346 325.862693,-4.54747351e-13 259.429986,-4.54747351e-13 L120.279691,-4.54747351e-13 C53.8521236,-4.54747351e-13 2.84217094e-14,53.8557148 2.84217094e-14,120.284314 Z M13,120.284314 C13,179.535804 61.0248993,227.568627 120.279691,227.568627 L259.429986,227.568627 C318.678924,227.568627 366.709677,179.532139 366.709677,120.284314 C366.709677,61.0328234 318.684778,13 259.429986,13 L120.279691,13 C61.0307537,13 13,61.0364882 13,120.284314 Z" id="Switch-Background"></path>
                </g>
            </g>
        </g>
    </g>
</svg>