<?xml version="1.0" encoding="UTF-8" standalone="no"?>
<svg width="1024px" height="1024px" viewBox="0 0 1024 1024" version="1.1" xmlns="http://www.w3.org/2000/svg" xmlns:xlink="http://www.w3.org/1999/xlink" xmlns:sketch="http://www.bohemiancoding.com/sketch/ns">
    <!-- Generator: Sketch 3.1.1 (8761) - http://www.bohemiancoding.com/sketch -->
    <title>AppIcon</title>
    <desc>Created with Sketch.</desc>
    <defs></defs>
    <g id="Page-1" stroke="none" stroke-width="1" fill="none" fill-rule="evenodd" sketch:type="MSPage">
        <g id="AppIcon" sketch:type="MSArtboardGroup">
            <g id="AppIconTemplate" sketch:type="MSLayerGroup" transform="translate(-11.000000, -10.000000)" fill="#4A4A4A">
                <g id="layer5" sketch:type="MSShapeGroup">
                    <rect id="rect4108" x="0" y="0" width="1048" height="1048"></rect>
                </g>
            </g>
            <path d="M672.665816,501.891366 L657.248319,530.184912 L641.832815,501.891366 C641.113265,500.571626 640.256184,499.373678 639.307415,498.285541 C637.820478,496.468653 635.990709,494.897344 633.824087,493.711375 C630.910011,492.118103 627.74479,491.385358 624.61146,491.421296 C621.476137,491.385358 618.310916,492.118103 615.398832,493.711375 C613.230217,494.897344 611.402442,496.468653 609.913512,498.285541 C608.966736,499.373678 608.109655,500.571626 607.390105,501.891366 L592.030411,530.079094 L576.67271,501.891366 C575.951167,500.571626 575.096079,499.373678 574.14731,498.285541 C572.65838,496.468653 570.830604,494.897344 568.663982,493.711375 C565.749906,492.118103 562.584685,491.385358 559.451355,491.421296 C556.316032,491.385358 553.150811,492.118103 550.238728,493.711375 C548.072106,494.895347 546.24433,496.466656 544.757394,498.281548 C543.806631,499.371681 542.94955,500.56963 542.23,501.891366 L526.975946,529.883429 L511.723885,501.891366 C511.004336,500.571626 510.147254,499.375674 509.200478,498.287538 C507.711549,496.468653 505.883773,494.897344 503.715158,493.711375 C500.803075,492.118103 497.637854,491.385358 494.502531,491.421296 C491.367208,491.385358 488.201986,492.118103 485.289903,493.711375 C483.121288,494.897344 481.291519,496.468653 479.80259,498.287538 C478.855814,499.375674 478.000726,500.571626 477.281176,501.891366 L462.180599,529.605904 L416.326749,445.456014 C412.649272,438.705574 405.669043,434.902088 398.609085,435.001917 C391.55112,434.902088 384.57089,438.705574 380.893413,445.456014 L318.469989,560.013829 C313.243786,569.605403 316.586403,581.616833 325.898691,586.708114 C335.210979,591.799395 347.106471,588.119697 352.332673,578.528123 L398.609085,493.601563 L444.885496,578.528123 C446.272771,581.073763 448.138418,583.188142 450.291087,584.847301 C451.144182,585.534125 452.051094,586.167041 453.039727,586.708114 C455.838197,588.239492 458.871867,588.962254 461.885604,588.986213 C465.489332,588.962254 468.521008,588.239492 471.319478,586.708114 C472.310104,586.167041 473.215023,585.534125 474.068118,584.847301 C476.220787,583.188142 478.086434,581.073763 479.473709,578.528123 L494.502531,550.947356 L509.531352,578.528123 C512.525157,584.022713 517.707509,587.564647 523.338334,588.642801 C524.303048,588.796538 524.711657,588.860428 525.124252,588.90036 C526.322173,588.97024 526.649059,588.990206 526.975946,588.990206 C528.247616,588.938295 528.538625,588.930309 528.82764,588.90036 C529.240235,588.860428 529.648844,588.796538 530.057452,588.73065 C536.246377,587.564647 541.428729,584.020716 544.422534,578.528123 L559.451355,550.947356 L574.480176,578.528123 C577.852691,584.717523 584.003745,588.42717 590.445807,588.924319 C591.057723,588.966247 591.544067,588.990206 592.030411,588.986213 C592.518748,588.990206 593.005092,588.966247 593.491435,588.930309 C600.057077,588.42717 606.210123,584.717523 609.582639,578.528123 L624.61146,550.947356 L639.640281,578.528123 C643.297826,585.242624 650.226232,589.04611 657.248319,588.984216 C664.270406,589.04611 671.200805,585.242624 674.85835,578.528123 L706.530494,520.40566 C711.756697,510.816082 708.412087,498.802656 699.099799,493.711375 C689.78751,488.620094 677.892019,492.301789 672.665816,501.891366 Z" id="Imported-Layers" fill="#EDEDED" sketch:type="MSShapeGroup"></path>
            <g id="Group" sketch:type="MSLayerGroup" transform="translate(109.000000, 118.000000)" stroke="#FFFFFF" stroke-width="40">
                <ellipse id="Oval" opacity="0.9" sketch:type="MSShapeGroup" cx="403.785088" cy="396.284444" rx="275.785088" ry="272.284444"></ellipse>
                <ellipse id="Oval" opacity="0.6" sketch:type="MSShapeGroup" cx="404.5" cy="397" rx="337.5" ry="334"></ellipse>
                <ellipse id="Oval" opacity="0.2" sketch:type="MSShapeGroup" cx="402.5" cy="398" rx="402.5" ry="398"></ellipse>
            </g>
        </g>
    </g>
</svg>